<svg xmlns="http://www.w3.org/2000/svg" width="40" height="40" viewBox="0 0 40 40" fill="none">
  <path fill-rule="evenodd" clip-rule="evenodd" d="M19.9998 3.33331C20.7943 3.33331 21.4783 3.89408 21.6341 4.67312C22.3874 8.43962 24.6678 12.1 27.7077 14.5319C31.3404 17.438 33.3332 21.049 33.3332 25C33.3332 28.5362 31.9284 31.9276 29.4279 34.4281C26.9274 36.9286 23.5361 38.3333 19.9998 38.3333C16.4636 38.3333 13.0722 36.9286 10.5717 34.4281C8.07126 31.9276 6.6665 28.5362 6.6665 25C6.6665 21.049 8.65931 17.438 12.292 14.5319C15.3318 12.1 17.6122 8.43962 18.3655 4.67312C18.5213 3.89408 19.2054 3.33331 19.9998 3.33331ZM19.9998 10.0889C18.6572 12.8167 16.7027 15.2721 14.3743 17.1348C11.3404 19.5619 9.99984 22.2843 9.99984 25C9.99984 27.6521 11.0534 30.1957 12.9288 32.071C14.8041 33.9464 17.3477 35 19.9998 35C22.652 35 25.1955 33.9464 27.0709 32.071C28.9463 30.1957 29.9998 27.6521 29.9998 25C29.9998 22.2843 28.6593 19.5619 25.6253 17.1348C23.297 15.2721 21.3425 12.8167 19.9998 10.0889Z" fill="#F8FAFC"/>
</svg>