<svg xmlns="http://www.w3.org/2000/svg" width="40" height="40" viewBox="0 0 40 40" fill="none">
<path fill-rule="evenodd" clip-rule="evenodd" d="M18.6588 7.36281C17.2463 6.80828 15.7263 6.58244 14.2136 6.70241C12.701 6.82237 11.2355 7.28499 9.92815 8.05523C8.62079 8.82546 7.50586 9.88311 6.66781 11.1481C5.82975 12.413 5.29055 13.8521 5.09105 15.3563C4.89154 16.8605 5.03696 18.3904 5.51629 19.8301C5.99563 21.2697 6.7963 22.5815 7.85767 23.6659C8.50152 24.3237 8.4902 25.3789 7.83237 26.0228C7.17455 26.6666 6.11934 26.6553 5.47549 25.9975C4.06033 24.5516 2.99276 22.8026 2.35365 20.883C1.71454 18.9635 1.52064 16.9236 1.78665 14.918C2.05266 12.9124 2.77159 10.9936 3.889 9.30704C5.00641 7.62044 6.49298 6.21024 8.23612 5.18327C9.97926 4.15629 11.9333 3.53946 13.9501 3.37951C15.9669 3.21955 17.9937 3.52067 19.8769 4.26004C21.7602 4.99942 23.4504 6.15766 24.8197 7.64705C25.9038 8.82617 26.7641 10.1884 27.3628 11.6667H29.1664C29.1663 11.6667 29.1665 11.6667 29.1664 11.6667C31.1331 11.6665 33.0479 12.2988 34.6277 13.4703C36.2075 14.6419 37.3686 16.2905 37.9394 18.1726C38.5103 20.0547 38.4607 22.0705 37.798 23.9222C37.1352 25.774 35.8945 27.3635 34.259 28.4559C33.4936 28.9672 32.4586 28.7612 31.9473 27.9957C31.4361 27.2303 31.6421 26.1953 32.4075 25.6841C33.4483 24.9889 34.2379 23.9774 34.6596 22.799C35.0814 21.6206 35.1129 20.3378 34.7496 19.1401C34.3863 17.9424 33.6474 16.8933 32.6421 16.1478C31.6368 15.4023 30.4184 14.9998 29.1668 15H26.1832C25.4464 15 24.797 14.5162 24.5862 13.8102C24.1521 12.3562 23.3928 11.0201 22.3659 9.90306C21.3389 8.78602 20.0712 7.91734 18.6588 7.36281Z" fill="#F8FAFC"/>
<path fill-rule="evenodd" clip-rule="evenodd" d="M20.0002 18.3333C20.9206 18.3333 21.6668 19.0795 21.6668 20V35C21.6668 35.9205 20.9206 36.6666 20.0002 36.6666C19.0797 36.6666 18.3335 35.9205 18.3335 35V20C18.3335 19.0795 19.0797 18.3333 20.0002 18.3333Z" fill="#F8FAFC"/>
<path fill-rule="evenodd" clip-rule="evenodd" d="M18.8213 18.8215C19.4722 18.1706 20.5275 18.1706 21.1783 18.8215L27.845 25.4881C28.4959 26.139 28.4959 27.1943 27.845 27.8452C27.1941 28.496 26.1389 28.496 25.488 27.8452L19.9998 22.357L14.5117 27.8452C13.8608 28.496 12.8055 28.496 12.1547 27.8452C11.5038 27.1943 11.5038 26.139 12.1547 25.4881L18.8213 18.8215Z" fill="#F8FAFC"/>
</svg>