<svg xmlns="http://www.w3.org/2000/svg" width="40" height="40" viewBox="0 0 40 40" fill="none">
<path fill-rule="evenodd" clip-rule="evenodd" d="M32.8962 13.3866C32.4983 13.3043 32.0863 13.3203 31.6959 13.433C31.3056 13.5458 30.9486 13.7521 30.6559 14.0339C29.9928 14.6724 28.9377 14.6524 28.2993 13.9894C27.6608 13.3263 27.6808 12.2712 28.3438 11.6328C29.0268 10.9751 29.8598 10.4939 30.7706 10.2307C31.6815 9.96752 32.6428 9.93033 33.5713 10.1223C34.4997 10.3144 35.3674 10.7298 36.0992 11.3327C36.8309 11.9356 37.4047 12.7077 37.7708 13.5823C38.1369 14.4569 38.2843 15.4076 38.2003 16.3519C38.1162 17.2963 37.8032 18.206 37.2884 19.0022C36.7736 19.7984 36.0725 20.4571 35.2457 20.9212C34.419 21.3854 33.4916 21.6411 32.5438 21.6661C32.5292 21.6665 32.5145 21.6667 32.4998 21.6667H3.33317C2.4127 21.6667 1.6665 20.9205 1.6665 20C1.6665 19.0795 2.4127 18.3333 3.33317 18.3333H32.475C32.8746 18.3197 33.2651 18.2105 33.6138 18.0147C33.9681 17.8158 34.2686 17.5335 34.4893 17.1923C34.7099 16.851 34.844 16.4612 34.88 16.0564C34.9161 15.6517 34.8529 15.2443 34.696 14.8695C34.5391 14.4946 34.2932 14.1637 33.9796 13.9053C33.666 13.6469 33.2941 13.4689 32.8962 13.3866Z" fill="#F8FAFC"/>
<path fill-rule="evenodd" clip-rule="evenodd" d="M18.6988 8.36441C18.4281 8.31166 18.1486 8.3269 17.8852 8.40877C17.6219 8.49063 17.383 8.63656 17.1899 8.83347C16.5455 9.49074 15.4903 9.50114 14.833 8.85672C14.1757 8.2123 14.1653 7.15707 14.8098 6.49981C15.389 5.90907 16.1057 5.47129 16.8957 5.22569C17.6857 4.9801 18.5243 4.93438 19.3364 5.09263C20.1484 5.25087 20.9085 5.60814 21.5485 6.13241C22.1885 6.65668 22.6884 7.33156 23.0034 8.09656C23.3184 8.86155 23.4386 9.69276 23.3534 10.5157C23.2681 11.3386 22.98 12.1275 22.5148 12.8116C22.0496 13.4958 21.422 14.0538 20.6881 14.4357C19.958 14.8156 19.1454 15.0094 18.3226 15H3.33317C2.4127 15 1.6665 14.2538 1.6665 13.3333C1.6665 12.4128 2.4127 11.6666 3.33317 11.6666H18.3566C18.6323 11.6705 18.9047 11.6061 19.1494 11.4788C19.394 11.3515 19.6032 11.1655 19.7583 10.9374C19.9133 10.7094 20.0094 10.4464 20.0378 10.1721C20.0662 9.89779 20.0261 9.62072 19.9211 9.36572C19.8161 9.11072 19.6495 8.88576 19.4362 8.71101C19.2228 8.53625 18.9695 8.41716 18.6988 8.36441Z" fill="#F8FAFC"/>
<path fill-rule="evenodd" clip-rule="evenodd" d="M23.3226 25C24.1455 24.9906 24.958 25.1844 25.6881 25.5643C26.422 25.9462 27.0496 26.5042 27.5148 27.1884C27.98 27.8725 28.2681 28.6614 28.3534 29.4843C28.4386 30.3072 28.3184 31.1385 28.0034 31.9034C27.6884 32.6684 27.1885 33.3433 26.5485 33.8676C25.9085 34.3919 25.1484 34.7491 24.3364 34.9074C23.5243 35.0656 22.6857 35.0199 21.8957 34.7743C21.1057 34.5287 20.389 34.0909 19.8098 33.5002C19.1653 32.8429 19.1757 31.7877 19.833 31.1433C20.4903 30.4989 21.5455 30.5093 22.1899 31.1665C22.383 31.3634 22.6219 31.5094 22.8852 31.5912C23.1486 31.6731 23.4281 31.6883 23.6988 31.6356C23.9695 31.5828 24.2228 31.4637 24.4362 31.289C24.6495 31.1142 24.8161 30.8893 24.9211 30.6343C25.0261 30.3793 25.0662 30.1022 25.0378 29.8279C25.0094 29.5536 24.9133 29.2906 24.7583 29.0626C24.6032 28.8345 24.394 28.6485 24.1494 28.5212C23.9047 28.3939 23.6323 28.3293 23.3566 28.3332L23.3332 28.3335V28.3334H3.33317C2.4127 28.3334 1.6665 27.5872 1.6665 26.6667C1.6665 25.7462 2.4127 25 3.33317 25H23.3226Z" fill="#F8FAFC"/>
</svg>